<svg width="67.774" height="67.774" xmlns="http://www.w3.org/2000/svg">

 <g>
  <title>background</title>
  <rect fill="none" id="canvas_background" height="602" width="802" y="-1" x="-1"/>
 </g>
 <g>
  <title>Layer 1</title>
  <g id="svg_1">
   <path fill="#7f0000" id="svg_2" d="m47.854,35.408c3.995,-3.739 6.51,-9.041 6.51,-14.932c0,-11.29 -9.186,-20.476 -20.476,-20.476s-20.476,9.186 -20.476,20.476c0,5.891 2.515,11.192 6.509,14.932c-6.162,5.301 -14.534,12.576 -14.534,29.366l0,3l56.999,0l0,-3c0.001,-16.789 -8.37,-24.065 -14.532,-29.366zm-28.442,-14.931c0,-7.982 6.494,-14.476 14.476,-14.476c7.981,0 14.476,6.494 14.476,14.476s-6.494,14.477 -14.476,14.477c-7.982,-0.001 -14.476,-6.495 -14.476,-14.477zm-7.918,41.297c0.875,-11.957 6.985,-17.213 12.424,-21.891c0.158,-0.137 0.315,-0.271 0.472,-0.406c2.979,1.277 6.223,1.959 9.521,1.984c3.259,-0.025 6.495,-0.707 9.474,-1.984c0.155,0.135 0.313,0.27 0.472,0.406c5.438,4.678 11.549,9.934 12.424,21.891l-44.787,0z"/>
  </g>
  <g id="svg_3"/>
  <g id="svg_4"/>
  <g id="svg_5"/>
  <g id="svg_6"/>
  <g id="svg_7"/>
  <g id="svg_8"/>
  <g id="svg_9"/>
  <g id="svg_10"/>
  <g id="svg_11"/>
  <g id="svg_12"/>
  <g id="svg_13"/>
  <g id="svg_14"/>
  <g id="svg_15"/>
  <g id="svg_16"/>
  <g id="svg_17"/>
 </g>
</svg>